<mxfile host="app.diagrams.net" modified="2024-03-27T12:55:47.772Z" agent="Mozilla/5.0 (Windows NT 10.0; Win64; x64) AppleWebKit/537.36 (KHTML, like Gecko) Chrome/123.0.0.0 Safari/537.36" etag="Y-hRIz_apqcmNtROapyC" version="24.2.0" type="device">
  <diagram id="qvohBCpRoWE2wQ9KsxPt" name="Page-1">
    <mxGraphModel dx="1050" dy="565" grid="0" gridSize="10" guides="1" tooltips="1" connect="1" arrows="1" fold="1" page="0" pageScale="1" pageWidth="1100" pageHeight="850" math="0" shadow="0">
      <root>
        <mxCell id="0" />
        <mxCell id="1" parent="0" />
        <mxCell id="uhWx_55oNKiTegj4KUDZ-3" style="edgeStyle=orthogonalEdgeStyle;rounded=0;orthogonalLoop=1;jettySize=auto;html=1;entryX=0;entryY=0.25;entryDx=0;entryDy=0;" parent="1" source="uhWx_55oNKiTegj4KUDZ-1" target="uhWx_55oNKiTegj4KUDZ-2" edge="1">
          <mxGeometry relative="1" as="geometry">
            <Array as="points">
              <mxPoint x="190" y="85" />
            </Array>
          </mxGeometry>
        </mxCell>
        <mxCell id="uhWx_55oNKiTegj4KUDZ-4" value="&lt;b&gt;&lt;font style=&quot;font-size: 12px;&quot;&gt;Notify all Contestant&lt;/font&gt;&lt;/b&gt;" style="edgeLabel;html=1;align=center;verticalAlign=middle;resizable=0;points=[];" parent="uhWx_55oNKiTegj4KUDZ-3" vertex="1" connectable="0">
          <mxGeometry x="-0.3821" relative="1" as="geometry">
            <mxPoint as="offset" />
          </mxGeometry>
        </mxCell>
        <mxCell id="uhWx_55oNKiTegj4KUDZ-1" value="&lt;b&gt;&lt;font style=&quot;font-size: 14px;&quot;&gt;Launch Contest&lt;/font&gt;&lt;/b&gt;" style="rounded=0;whiteSpace=wrap;html=1;fillColor=#dae8fc;strokeColor=#6c8ebf;" parent="1" vertex="1">
          <mxGeometry x="119" y="152" width="120" height="60" as="geometry" />
        </mxCell>
        <mxCell id="uhWx_55oNKiTegj4KUDZ-6" style="edgeStyle=orthogonalEdgeStyle;rounded=0;orthogonalLoop=1;jettySize=auto;html=1;entryX=0;entryY=0.5;entryDx=0;entryDy=0;" parent="1" source="uhWx_55oNKiTegj4KUDZ-2" target="uhWx_55oNKiTegj4KUDZ-5" edge="1">
          <mxGeometry relative="1" as="geometry" />
        </mxCell>
        <mxCell id="uhWx_55oNKiTegj4KUDZ-2" value="&lt;b&gt;&lt;font style=&quot;font-size: 14px;&quot;&gt;Notification&lt;/font&gt;&lt;/b&gt;" style="rounded=0;whiteSpace=wrap;html=1;fillColor=#dae8fc;strokeColor=#6c8ebf;" parent="1" vertex="1">
          <mxGeometry x="270" y="70" width="120" height="60" as="geometry" />
        </mxCell>
        <mxCell id="uhWx_55oNKiTegj4KUDZ-8" style="edgeStyle=orthogonalEdgeStyle;rounded=0;orthogonalLoop=1;jettySize=auto;html=1;entryX=0;entryY=0.5;entryDx=0;entryDy=0;" parent="1" source="uhWx_55oNKiTegj4KUDZ-5" target="uhWx_55oNKiTegj4KUDZ-7" edge="1">
          <mxGeometry relative="1" as="geometry" />
        </mxCell>
        <mxCell id="uhWx_55oNKiTegj4KUDZ-5" value="&lt;b&gt;&lt;font style=&quot;font-size: 14px;&quot;&gt;Participate&lt;/font&gt;&lt;/b&gt;" style="rounded=0;whiteSpace=wrap;html=1;fillColor=#dae8fc;strokeColor=#6c8ebf;" parent="1" vertex="1">
          <mxGeometry x="440" y="70" width="120" height="60" as="geometry" />
        </mxCell>
        <mxCell id="uhWx_55oNKiTegj4KUDZ-10" value="" style="edgeStyle=orthogonalEdgeStyle;rounded=0;orthogonalLoop=1;jettySize=auto;html=1;" parent="1" source="uhWx_55oNKiTegj4KUDZ-7" target="uhWx_55oNKiTegj4KUDZ-9" edge="1">
          <mxGeometry relative="1" as="geometry" />
        </mxCell>
        <mxCell id="uhWx_55oNKiTegj4KUDZ-7" value="&lt;span style=&quot;font-size: 14px;&quot;&gt;&lt;b&gt;Start Contest&lt;/b&gt;&lt;/span&gt;" style="rounded=0;whiteSpace=wrap;html=1;fillColor=#dae8fc;strokeColor=#6c8ebf;" parent="1" vertex="1">
          <mxGeometry x="590" y="70" width="120" height="60" as="geometry" />
        </mxCell>
        <mxCell id="uhWx_55oNKiTegj4KUDZ-12" value="" style="edgeStyle=orthogonalEdgeStyle;rounded=0;orthogonalLoop=1;jettySize=auto;html=1;" parent="1" source="uhWx_55oNKiTegj4KUDZ-9" target="uhWx_55oNKiTegj4KUDZ-11" edge="1">
          <mxGeometry relative="1" as="geometry" />
        </mxCell>
        <mxCell id="uhWx_55oNKiTegj4KUDZ-9" value="&lt;span style=&quot;font-size: 14px;&quot;&gt;&lt;b&gt;Leaderboard&lt;/b&gt;&lt;/span&gt;" style="rounded=0;whiteSpace=wrap;html=1;fillColor=#dae8fc;strokeColor=#6c8ebf;" parent="1" vertex="1">
          <mxGeometry x="760" y="70" width="120" height="60" as="geometry" />
        </mxCell>
        <mxCell id="uhWx_55oNKiTegj4KUDZ-15" value="" style="edgeStyle=orthogonalEdgeStyle;rounded=0;orthogonalLoop=1;jettySize=auto;html=1;" parent="1" source="uhWx_55oNKiTegj4KUDZ-11" target="uhWx_55oNKiTegj4KUDZ-13" edge="1">
          <mxGeometry relative="1" as="geometry" />
        </mxCell>
        <mxCell id="uhWx_55oNKiTegj4KUDZ-11" value="&lt;span style=&quot;font-size: 14px;&quot;&gt;&lt;b&gt;End contest&lt;/b&gt;&lt;/span&gt;" style="rounded=0;whiteSpace=wrap;html=1;fillColor=#dae8fc;strokeColor=#6c8ebf;" parent="1" vertex="1">
          <mxGeometry x="910" y="70" width="120" height="60" as="geometry" />
        </mxCell>
        <mxCell id="uhWx_55oNKiTegj4KUDZ-13" value="&lt;span style=&quot;font-size: 14px;&quot;&gt;&lt;b&gt;Participant Profile updated&lt;/b&gt;&lt;/span&gt;" style="rounded=0;whiteSpace=wrap;html=1;fillColor=#dae8fc;strokeColor=#6c8ebf;" parent="1" vertex="1">
          <mxGeometry x="910" y="160" width="120" height="60" as="geometry" />
        </mxCell>
        <mxCell id="uhWx_55oNKiTegj4KUDZ-99" style="edgeStyle=orthogonalEdgeStyle;rounded=0;orthogonalLoop=1;jettySize=auto;html=1;" parent="1" source="uhWx_55oNKiTegj4KUDZ-16" target="uhWx_55oNKiTegj4KUDZ-90" edge="1">
          <mxGeometry relative="1" as="geometry">
            <Array as="points">
              <mxPoint x="350" y="285" />
              <mxPoint x="1090" y="285" />
            </Array>
          </mxGeometry>
        </mxCell>
        <mxCell id="uhWx_55oNKiTegj4KUDZ-16" value="&lt;b&gt;&lt;font style=&quot;font-size: 14px;&quot;&gt;Admin approval&lt;/font&gt;&lt;/b&gt;" style="rounded=0;whiteSpace=wrap;html=1;fillColor=#dae8fc;strokeColor=#6c8ebf;" parent="1" vertex="1">
          <mxGeometry x="290" y="170" width="120" height="60" as="geometry" />
        </mxCell>
        <mxCell id="uhWx_55oNKiTegj4KUDZ-20" value="" style="edgeStyle=orthogonalEdgeStyle;rounded=0;orthogonalLoop=1;jettySize=auto;html=1;" parent="1" source="uhWx_55oNKiTegj4KUDZ-19" target="uhWx_55oNKiTegj4KUDZ-16" edge="1">
          <mxGeometry relative="1" as="geometry" />
        </mxCell>
        <mxCell id="uhWx_55oNKiTegj4KUDZ-19" value="&lt;b&gt;&lt;font style=&quot;font-size: 14px;&quot;&gt;Create contest&lt;/font&gt;&lt;/b&gt;" style="rounded=0;whiteSpace=wrap;html=1;fillColor=#dae8fc;strokeColor=#6c8ebf;" parent="1" vertex="1">
          <mxGeometry x="440" y="170" width="120" height="60" as="geometry" />
        </mxCell>
        <mxCell id="uhWx_55oNKiTegj4KUDZ-25" value="" style="rounded=0;whiteSpace=wrap;html=1;" parent="1" vertex="1">
          <mxGeometry x="160" y="340" width="540" height="200" as="geometry" />
        </mxCell>
        <mxCell id="uhWx_55oNKiTegj4KUDZ-27" value="&lt;b&gt;Profile overview&lt;/b&gt;" style="rounded=0;whiteSpace=wrap;html=1;fillColor=#d5e8d4;strokeColor=#82b366;" parent="1" vertex="1">
          <mxGeometry x="170" y="380" width="100" height="40" as="geometry" />
        </mxCell>
        <mxCell id="uhWx_55oNKiTegj4KUDZ-28" value="&lt;b&gt;Setting&lt;/b&gt;" style="rounded=0;whiteSpace=wrap;html=1;fillColor=#fff2cc;strokeColor=#d6b656;" parent="1" vertex="1">
          <mxGeometry x="320" y="380" width="100" height="40" as="geometry" />
        </mxCell>
        <mxCell id="uhWx_55oNKiTegj4KUDZ-56" style="edgeStyle=orthogonalEdgeStyle;rounded=0;orthogonalLoop=1;jettySize=auto;html=1;entryX=0.5;entryY=0;entryDx=0;entryDy=0;" parent="1" source="uhWx_55oNKiTegj4KUDZ-29" target="uhWx_55oNKiTegj4KUDZ-42" edge="1">
          <mxGeometry relative="1" as="geometry">
            <Array as="points">
              <mxPoint x="510" y="460" />
              <mxPoint x="510" y="460" />
            </Array>
          </mxGeometry>
        </mxCell>
        <mxCell id="uhWx_55oNKiTegj4KUDZ-29" value="&lt;b&gt;Team&lt;/b&gt;" style="rounded=0;whiteSpace=wrap;html=1;fillColor=#e1d5e7;strokeColor=#9673a6;" parent="1" vertex="1">
          <mxGeometry x="450" y="380" width="110" height="40" as="geometry" />
        </mxCell>
        <mxCell id="uhWx_55oNKiTegj4KUDZ-74" style="edgeStyle=orthogonalEdgeStyle;rounded=0;orthogonalLoop=1;jettySize=auto;html=1;entryX=0;entryY=0;entryDx=0;entryDy=0;" parent="1" source="uhWx_55oNKiTegj4KUDZ-30" target="uhWx_55oNKiTegj4KUDZ-61" edge="1">
          <mxGeometry relative="1" as="geometry">
            <Array as="points">
              <mxPoint x="630" y="320" />
              <mxPoint x="890" y="320" />
            </Array>
          </mxGeometry>
        </mxCell>
        <mxCell id="uhWx_55oNKiTegj4KUDZ-30" value="&lt;b&gt;Problem setting history&lt;/b&gt;" style="rounded=0;whiteSpace=wrap;html=1;fillColor=#f9f7ed;strokeColor=#36393d;" parent="1" vertex="1">
          <mxGeometry x="580" y="380" width="100" height="40" as="geometry" />
        </mxCell>
        <mxCell id="uhWx_55oNKiTegj4KUDZ-31" value="&amp;nbsp;Personal information" style="rounded=1;whiteSpace=wrap;html=1;fillColor=#d5e8d4;strokeColor=#82b366;align=left;" parent="1" vertex="1">
          <mxGeometry x="170" y="440" width="130" height="20" as="geometry" />
        </mxCell>
        <mxCell id="uhWx_55oNKiTegj4KUDZ-32" value="&amp;nbsp;Activity history" style="rounded=1;whiteSpace=wrap;html=1;fillColor=#d5e8d4;strokeColor=#82b366;align=left;" parent="1" vertex="1">
          <mxGeometry x="170" y="470" width="130" height="20" as="geometry" />
        </mxCell>
        <mxCell id="uhWx_55oNKiTegj4KUDZ-33" value="Achievement &amp;amp; badges" style="rounded=1;whiteSpace=wrap;html=1;fillColor=#d5e8d4;strokeColor=#82b366;" parent="1" vertex="1">
          <mxGeometry x="170" y="500" width="130" height="20" as="geometry" />
        </mxCell>
        <mxCell id="uhWx_55oNKiTegj4KUDZ-34" value="For updating info" style="rounded=1;whiteSpace=wrap;html=1;fillColor=#fff2cc;strokeColor=#d6b656;align=center;" parent="1" vertex="1">
          <mxGeometry x="320" y="440" width="110" height="20" as="geometry" />
        </mxCell>
        <mxCell id="uhWx_55oNKiTegj4KUDZ-35" value="" style="endArrow=classic;html=1;rounded=0;entryX=0.5;entryY=1;entryDx=0;entryDy=0;" parent="1" target="uhWx_55oNKiTegj4KUDZ-28" edge="1">
          <mxGeometry width="50" height="50" relative="1" as="geometry">
            <mxPoint x="370" y="440" as="sourcePoint" />
            <mxPoint x="420" y="390" as="targetPoint" />
          </mxGeometry>
        </mxCell>
        <mxCell id="uhWx_55oNKiTegj4KUDZ-36" value="&lt;font style=&quot;font-size: 14px;&quot;&gt;Problem-Setter user profile&lt;/font&gt;" style="rounded=0;whiteSpace=wrap;html=1;fillColor=#f5f5f5;gradientColor=#b3b3b3;strokeColor=#666666;" parent="1" vertex="1">
          <mxGeometry x="320" y="300" width="220" height="40" as="geometry" />
        </mxCell>
        <mxCell id="uhWx_55oNKiTegj4KUDZ-40" value="" style="rounded=0;whiteSpace=wrap;html=1;" parent="1" vertex="1">
          <mxGeometry x="390" y="560" width="320" height="210" as="geometry" />
        </mxCell>
        <mxCell id="uhWx_55oNKiTegj4KUDZ-41" value="Team Name" style="rounded=0;whiteSpace=wrap;html=1;fillColor=#e1d5e7;strokeColor=#9673a6;" parent="1" vertex="1">
          <mxGeometry x="390" y="560" width="80" height="30" as="geometry" />
        </mxCell>
        <mxCell id="uhWx_55oNKiTegj4KUDZ-42" value="Contest Name" style="rounded=0;whiteSpace=wrap;html=1;fillColor=#e1d5e7;strokeColor=#9673a6;" parent="1" vertex="1">
          <mxGeometry x="470" y="560" width="80" height="30" as="geometry" />
        </mxCell>
        <mxCell id="uhWx_55oNKiTegj4KUDZ-43" value="Contest Owner" style="rounded=0;whiteSpace=wrap;html=1;fillColor=#e1d5e7;strokeColor=#9673a6;" parent="1" vertex="1">
          <mxGeometry x="550" y="560" width="80" height="30" as="geometry" />
        </mxCell>
        <mxCell id="uhWx_55oNKiTegj4KUDZ-44" value="Time" style="rounded=0;whiteSpace=wrap;html=1;fillColor=#e1d5e7;strokeColor=#9673a6;" parent="1" vertex="1">
          <mxGeometry x="630" y="560" width="80" height="30" as="geometry" />
        </mxCell>
        <mxCell id="uhWx_55oNKiTegj4KUDZ-45" value="Team A" style="rounded=0;whiteSpace=wrap;html=1;" parent="1" vertex="1">
          <mxGeometry x="390" y="590" width="80" height="30" as="geometry" />
        </mxCell>
        <mxCell id="uhWx_55oNKiTegj4KUDZ-46" value="&lt;u&gt;Raise Up -1&lt;/u&gt;" style="rounded=0;whiteSpace=wrap;html=1;" parent="1" vertex="1">
          <mxGeometry x="470" y="590" width="80" height="30" as="geometry" />
        </mxCell>
        <mxCell id="uhWx_55oNKiTegj4KUDZ-48" value="11.03.2024" style="rounded=0;whiteSpace=wrap;html=1;" parent="1" vertex="1">
          <mxGeometry x="630" y="590" width="80" height="30" as="geometry" />
        </mxCell>
        <mxCell id="uhWx_55oNKiTegj4KUDZ-49" value="NewEra" style="rounded=0;whiteSpace=wrap;html=1;" parent="1" vertex="1">
          <mxGeometry x="390" y="620" width="80" height="30" as="geometry" />
        </mxCell>
        <mxCell id="uhWx_55oNKiTegj4KUDZ-50" value="&lt;u&gt;Level-2&lt;/u&gt;" style="rounded=0;whiteSpace=wrap;html=1;" parent="1" vertex="1">
          <mxGeometry x="470" y="620" width="80" height="30" as="geometry" />
        </mxCell>
        <mxCell id="uhWx_55oNKiTegj4KUDZ-51" value="ABC" style="rounded=0;whiteSpace=wrap;html=1;" parent="1" vertex="1">
          <mxGeometry x="550" y="620" width="80" height="30" as="geometry" />
        </mxCell>
        <mxCell id="uhWx_55oNKiTegj4KUDZ-52" value="10.01.24" style="rounded=0;whiteSpace=wrap;html=1;" parent="1" vertex="1">
          <mxGeometry x="630" y="620" width="80" height="30" as="geometry" />
        </mxCell>
        <mxCell id="uhWx_55oNKiTegj4KUDZ-57" value="" style="rounded=0;whiteSpace=wrap;html=1;" parent="1" vertex="1">
          <mxGeometry x="730" y="340" width="400" height="220" as="geometry" />
        </mxCell>
        <mxCell id="uhWx_55oNKiTegj4KUDZ-58" value="&lt;b&gt;&lt;font style=&quot;font-size: 14px;&quot;&gt;Logout&lt;/font&gt;&lt;/b&gt;" style="rounded=0;whiteSpace=wrap;html=1;fillColor=#e51400;strokeColor=#B20000;fontColor=#ffffff;" parent="1" vertex="1">
          <mxGeometry x="620" y="500" width="70" height="29.5" as="geometry" />
        </mxCell>
        <mxCell id="uhWx_55oNKiTegj4KUDZ-59" value="Contest Name" style="rounded=0;whiteSpace=wrap;html=1;fillColor=#f9f7ed;strokeColor=#36393d;" parent="1" vertex="1">
          <mxGeometry x="730" y="340" width="80" height="30" as="geometry" />
        </mxCell>
        <mxCell id="uhWx_55oNKiTegj4KUDZ-60" value="Contest ID" style="rounded=0;whiteSpace=wrap;html=1;fillColor=#f9f7ed;strokeColor=#36393d;" parent="1" vertex="1">
          <mxGeometry x="810" y="340" width="80" height="30" as="geometry" />
        </mxCell>
        <mxCell id="uhWx_55oNKiTegj4KUDZ-61" value="Total Participant" style="rounded=0;whiteSpace=wrap;html=1;fillColor=#f9f7ed;strokeColor=#36393d;" parent="1" vertex="1">
          <mxGeometry x="890" y="340" width="80" height="30" as="geometry" />
        </mxCell>
        <mxCell id="uhWx_55oNKiTegj4KUDZ-62" value="Owner" style="rounded=0;whiteSpace=wrap;html=1;fillColor=#f9f7ed;strokeColor=#36393d;" parent="1" vertex="1">
          <mxGeometry x="970" y="340" width="80" height="30" as="geometry" />
        </mxCell>
        <mxCell id="uhWx_55oNKiTegj4KUDZ-63" value="One way" style="rounded=0;whiteSpace=wrap;html=1;" parent="1" vertex="1">
          <mxGeometry x="730" y="370" width="80" height="30" as="geometry" />
        </mxCell>
        <mxCell id="uhWx_55oNKiTegj4KUDZ-64" value="OneWay224" style="rounded=0;whiteSpace=wrap;html=1;" parent="1" vertex="1">
          <mxGeometry x="810" y="370" width="80" height="30" as="geometry" />
        </mxCell>
        <mxCell id="uhWx_55oNKiTegj4KUDZ-65" value="-" style="rounded=0;whiteSpace=wrap;html=1;" parent="1" vertex="1">
          <mxGeometry x="890" y="370" width="80" height="30" as="geometry" />
        </mxCell>
        <mxCell id="uhWx_55oNKiTegj4KUDZ-66" value="&lt;u&gt;Me&lt;/u&gt;" style="rounded=0;whiteSpace=wrap;html=1;" parent="1" vertex="1">
          <mxGeometry x="970" y="370" width="80" height="30" as="geometry" />
        </mxCell>
        <mxCell id="uhWx_55oNKiTegj4KUDZ-69" value="PQR" style="rounded=0;whiteSpace=wrap;html=1;" parent="1" vertex="1">
          <mxGeometry x="550" y="590" width="80" height="30" as="geometry" />
        </mxCell>
        <mxCell id="uhWx_55oNKiTegj4KUDZ-70" value="Fortune" style="rounded=0;whiteSpace=wrap;html=1;" parent="1" vertex="1">
          <mxGeometry x="730" y="400" width="80" height="30" as="geometry" />
        </mxCell>
        <mxCell id="uhWx_55oNKiTegj4KUDZ-71" value="Fortune003" style="rounded=0;whiteSpace=wrap;html=1;" parent="1" vertex="1">
          <mxGeometry x="810" y="400" width="80" height="30" as="geometry" />
        </mxCell>
        <mxCell id="uhWx_55oNKiTegj4KUDZ-72" value="-" style="rounded=0;whiteSpace=wrap;html=1;" parent="1" vertex="1">
          <mxGeometry x="890" y="400" width="80" height="30" as="geometry" />
        </mxCell>
        <mxCell id="uhWx_55oNKiTegj4KUDZ-73" value="&lt;u&gt;Team&lt;/u&gt;" style="rounded=0;whiteSpace=wrap;html=1;" parent="1" vertex="1">
          <mxGeometry x="970" y="400" width="80" height="30" as="geometry" />
        </mxCell>
        <mxCell id="uhWx_55oNKiTegj4KUDZ-75" value="ABC" style="rounded=0;whiteSpace=wrap;html=1;" parent="1" vertex="1">
          <mxGeometry x="730" y="430" width="80" height="30" as="geometry" />
        </mxCell>
        <mxCell id="uhWx_55oNKiTegj4KUDZ-76" value="ABC4510" style="rounded=0;whiteSpace=wrap;html=1;" parent="1" vertex="1">
          <mxGeometry x="810" y="430" width="80" height="30" as="geometry" />
        </mxCell>
        <mxCell id="uhWx_55oNKiTegj4KUDZ-77" value="34" style="rounded=0;whiteSpace=wrap;html=1;" parent="1" vertex="1">
          <mxGeometry x="890" y="430" width="80" height="30" as="geometry" />
        </mxCell>
        <mxCell id="uhWx_55oNKiTegj4KUDZ-78" value="&lt;u&gt;Team&lt;/u&gt;" style="rounded=0;whiteSpace=wrap;html=1;" parent="1" vertex="1">
          <mxGeometry x="970" y="430" width="80" height="30" as="geometry" />
        </mxCell>
        <mxCell id="uhWx_55oNKiTegj4KUDZ-98" style="edgeStyle=orthogonalEdgeStyle;rounded=0;orthogonalLoop=1;jettySize=auto;html=1;entryX=0.25;entryY=1;entryDx=0;entryDy=0;" parent="1" source="uhWx_55oNKiTegj4KUDZ-79" target="uhWx_55oNKiTegj4KUDZ-1" edge="1">
          <mxGeometry relative="1" as="geometry">
            <Array as="points">
              <mxPoint x="895" y="839" />
              <mxPoint x="119" y="839" />
              <mxPoint x="119" y="230" />
            </Array>
          </mxGeometry>
        </mxCell>
        <mxCell id="uhWx_55oNKiTegj4KUDZ-79" value="" style="rounded=0;whiteSpace=wrap;html=1;" parent="1" vertex="1">
          <mxGeometry x="740" y="600" width="310" height="200" as="geometry" />
        </mxCell>
        <mxCell id="uhWx_55oNKiTegj4KUDZ-80" value="" style="rounded=1;whiteSpace=wrap;html=1;" parent="1" vertex="1">
          <mxGeometry x="840" y="640" width="190" height="30" as="geometry" />
        </mxCell>
        <mxCell id="uhWx_55oNKiTegj4KUDZ-81" value="&lt;font style=&quot;font-size: 14px;&quot;&gt;Starting Time&lt;/font&gt;" style="text;html=1;align=center;verticalAlign=middle;whiteSpace=wrap;rounded=0;" parent="1" vertex="1">
          <mxGeometry x="745" y="685" width="90" height="30" as="geometry" />
        </mxCell>
        <mxCell id="uhWx_55oNKiTegj4KUDZ-82" value="" style="rounded=1;whiteSpace=wrap;html=1;" parent="1" vertex="1">
          <mxGeometry x="840" y="685" width="190" height="30" as="geometry" />
        </mxCell>
        <mxCell id="uhWx_55oNKiTegj4KUDZ-83" value="&lt;font style=&quot;font-size: 14px;&quot;&gt;Contest ID&lt;/font&gt;" style="text;html=1;align=center;verticalAlign=middle;whiteSpace=wrap;rounded=0;" parent="1" vertex="1">
          <mxGeometry x="750" y="640" width="80" height="30" as="geometry" />
        </mxCell>
        <mxCell id="uhWx_55oNKiTegj4KUDZ-90" value="Status" style="rounded=0;whiteSpace=wrap;html=1;fillColor=#f9f7ed;strokeColor=#36393d;" parent="1" vertex="1">
          <mxGeometry x="1050" y="340" width="80" height="30" as="geometry" />
        </mxCell>
        <mxCell id="uhWx_55oNKiTegj4KUDZ-91" value="&lt;u&gt;Pending&lt;/u&gt;" style="rounded=0;whiteSpace=wrap;html=1;" parent="1" vertex="1">
          <mxGeometry x="1050" y="370" width="80" height="30" as="geometry" />
        </mxCell>
        <mxCell id="uhWx_55oNKiTegj4KUDZ-92" value="&lt;u&gt;Approved&lt;/u&gt;" style="rounded=0;whiteSpace=wrap;html=1;" parent="1" vertex="1">
          <mxGeometry x="1050" y="400" width="80" height="30" as="geometry" />
        </mxCell>
        <mxCell id="uhWx_55oNKiTegj4KUDZ-93" value="&lt;u&gt;Happened&lt;/u&gt;" style="rounded=0;whiteSpace=wrap;html=1;" parent="1" vertex="1">
          <mxGeometry x="1050" y="430" width="80" height="30" as="geometry" />
        </mxCell>
        <mxCell id="uhWx_55oNKiTegj4KUDZ-95" value="&lt;b&gt;&lt;font style=&quot;font-size: 14px;&quot;&gt;Launch&lt;/font&gt;&lt;/b&gt;" style="rounded=0;whiteSpace=wrap;html=1;fillColor=#d5e8d4;strokeColor=#82b366;gradientColor=#97d077;" parent="1" vertex="1">
          <mxGeometry x="860" y="740.5" width="80" height="29.5" as="geometry" />
        </mxCell>
        <mxCell id="uhWx_55oNKiTegj4KUDZ-97" style="edgeStyle=orthogonalEdgeStyle;rounded=0;orthogonalLoop=1;jettySize=auto;html=1;entryX=1;entryY=0.197;entryDx=0;entryDy=0;entryPerimeter=0;" parent="1" source="uhWx_55oNKiTegj4KUDZ-92" target="uhWx_55oNKiTegj4KUDZ-79" edge="1">
          <mxGeometry relative="1" as="geometry">
            <Array as="points">
              <mxPoint x="1156" y="415" />
              <mxPoint x="1156" y="639" />
            </Array>
          </mxGeometry>
        </mxCell>
      </root>
    </mxGraphModel>
  </diagram>
</mxfile>
